# xmcd CD database file
#
# Track frame offsets:
#	150
#	41922
#	65768
#	89395
#	135251
#	155756
#	174068
#	217051
#
# Disc length: 3124 seconds
#
# Revision: 0
# Processed by: cddbd v1.5.2PL0 Copyright (c) Steve Scherf et al.
# Submitted via: CDex 1.70beta2
#
DISCID=6e0c3208
DTITLE=Giulia Valle Group - Berenice
DYEAR=2010
DGENRE=Jazz
TTITLE0=Argentina
TTITLE1=Break-A-Loop
TTITLE2=Un Sue￱o
TTITLE3=Xuxi
TTITLE4=Va y Viene
TTITLE5=Berenice
TTITLE6=Shades Off
TTITLE7=Intro (Bonus Track)
EXTD=YEAR: 2010
EXTT0=
EXTT1=
EXTT2=
EXTT3=
EXTT4=
EXTT5=
EXTT6=
EXTT7=
PLAYORDER=
